<svg width="110" height="61" viewBox="0 0 110 61" fill="none" xmlns="http://www.w3.org/2000/svg">
<path d="M21.7676 13.6719V35H16.626V13.6719H21.7676ZM30.0586 22.5488V26.5039H20.3027V22.5488H30.0586ZM30.8936 13.6719V17.6416H20.3027V13.6719H30.8936ZM43.6523 13.6719V35H38.5107V13.6719H43.6523ZM50.0684 13.6719V17.6416H32.2412V13.6719H50.0684ZM63.9697 27.7783H69.0967C69.0283 29.2627 68.6279 30.5713 67.8955 31.7041C67.1631 32.8369 66.1475 33.7207 64.8486 34.3555C63.5596 34.9805 62.0361 35.293 60.2783 35.293C58.8525 35.293 57.5781 35.0537 56.4551 34.5752C55.3418 34.0967 54.3945 33.4082 53.6133 32.5098C52.8418 31.6113 52.251 30.5225 51.8408 29.2432C51.4404 27.9639 51.2402 26.5234 51.2402 24.9219V23.7646C51.2402 22.1631 51.4502 20.7227 51.8701 19.4434C52.2998 18.1543 52.9053 17.0605 53.6865 16.1621C54.4775 15.2539 55.4248 14.5605 56.5283 14.082C57.6318 13.6035 58.8574 13.3643 60.2051 13.3643C62.0605 13.3643 63.6279 13.6963 64.9072 14.3604C66.1865 15.0244 67.1777 15.9375 67.8809 17.0996C68.584 18.252 68.999 19.5654 69.126 21.04H63.999C63.9795 20.2393 63.8428 19.5703 63.5889 19.0332C63.335 18.4863 62.9346 18.0762 62.3877 17.8027C61.8408 17.5293 61.1133 17.3926 60.2051 17.3926C59.5703 17.3926 59.0186 17.5098 58.5498 17.7441C58.0811 17.9785 57.6904 18.3496 57.3779 18.8574C57.0654 19.3652 56.8311 20.0244 56.6748 20.835C56.5283 21.6357 56.4551 22.6025 56.4551 23.7354V24.9219C56.4551 26.0547 56.5234 27.0215 56.6602 27.8223C56.7969 28.623 57.0166 29.2773 57.3193 29.7852C57.6221 30.293 58.0127 30.6689 58.4912 30.9131C58.9795 31.1475 59.5752 31.2646 60.2783 31.2646C61.0596 31.2646 61.7188 31.1426 62.2559 30.8984C62.793 30.6445 63.208 30.2637 63.501 29.7559C63.7939 29.2383 63.9502 28.5791 63.9697 27.7783Z" fill="white"/>
<path d="M79.6161 30.2455C79.8449 30.5003 80.1731 30.6464 80.5163 30.6464C80.8157 30.6464 81.1034 30.5358 81.326 30.3354C81.8221 29.889 81.8623 29.1216 81.4159 28.6249L78.1531 25L81.4159 21.3745C81.8623 20.8784 81.8221 20.111 81.326 19.6646C81.0857 19.4482 80.7735 19.3358 80.4524 19.3554C80.129 19.3725 79.8322 19.5138 79.6161 19.7539L75.624 24.19C75.2087 24.6517 75.2087 25.3482 75.624 25.8106L79.6161 30.2455ZM90.3839 19.7539C89.9375 19.2584 89.171 19.2176 88.674 19.6646C88.178 20.111 88.1377 20.8784 88.5841 21.3751L91.8469 25L88.5841 28.6255C88.1377 29.1216 88.178 29.889 88.674 30.336C88.8966 30.5358 89.1843 30.6464 89.4837 30.6464C89.8269 30.6464 90.1551 30.5004 90.3839 30.2461L94.376 25.81C94.7913 25.3482 94.7913 24.6517 94.376 24.19L90.3839 19.7539ZM87.1214 16.3601L87.1202 16.3595C86.4713 16.2023 85.8153 16.6013 85.6569 17.2476L81.9917 32.1753C81.8324 32.8234 82.2303 33.4802 82.8792 33.6399C82.9735 33.6629 83.0708 33.6747 83.168 33.6747C83.7268 33.6747 84.2101 33.2958 84.3431 32.7524L88.0083 17.8246C88.1676 17.1766 87.7697 16.5198 87.1214 16.3601Z" fill="#F05941"/>
<g clip-path="url(#clip0_5_117)">
<path d="M17.4121 49.3652L19.1113 42.4688H20.0312L20.0898 43.9219L18.2734 51H17.3008L17.4121 49.3652ZM16.3398 42.4688L17.7344 49.3418V51H16.6738L14.7402 42.4688H16.3398ZM21.8535 49.3125L23.2246 42.4688H24.8301L22.8965 51H21.8359L21.8535 49.3125ZM20.4707 42.4688L22.1699 49.3887L22.2695 51H21.2969L19.4863 43.916L19.5566 42.4688H20.4707ZM28.3926 51.1172C27.9121 51.1172 27.4805 51.0391 27.0977 50.8828C26.7148 50.7266 26.3887 50.5098 26.1191 50.2324C25.8535 49.9512 25.6484 49.625 25.5039 49.2539C25.3633 48.8789 25.293 48.4766 25.293 48.0469V47.8125C25.293 47.3242 25.3633 46.8809 25.5039 46.4824C25.6445 46.0801 25.8438 45.7344 26.1016 45.4453C26.3594 45.1562 26.668 44.9336 27.0273 44.7773C27.3867 44.6211 27.7832 44.543 28.2168 44.543C28.666 44.543 29.0625 44.6191 29.4062 44.7715C29.75 44.9199 30.0371 45.1309 30.2676 45.4043C30.498 45.6777 30.6719 46.0059 30.7891 46.3887C30.9062 46.7676 30.9648 47.1875 30.9648 47.6484V48.2988H25.9961V47.2324H29.4414V47.1152C29.4336 46.8691 29.3867 46.6445 29.3008 46.4414C29.2148 46.2344 29.082 46.0703 28.9023 45.9492C28.7227 45.8242 28.4902 45.7617 28.2051 45.7617C27.9746 45.7617 27.7734 45.8125 27.6016 45.9141C27.4336 46.0117 27.293 46.1523 27.1797 46.3359C27.0703 46.5156 26.9883 46.7305 26.9336 46.9805C26.8789 47.2305 26.8516 47.5078 26.8516 47.8125V48.0469C26.8516 48.3125 26.8867 48.5586 26.957 48.7852C27.0312 49.0117 27.1387 49.209 27.2793 49.377C27.4238 49.541 27.5957 49.6699 27.7949 49.7637C27.998 49.8535 28.2285 49.8984 28.4863 49.8984C28.8105 49.8984 29.1035 49.8359 29.3652 49.7109C29.6309 49.582 29.8613 49.3926 30.0566 49.1426L30.8359 49.9512C30.7031 50.1465 30.5234 50.334 30.2969 50.5137C30.0742 50.6934 29.8047 50.8398 29.4883 50.9531C29.1719 51.0625 28.8066 51.1172 28.3926 51.1172ZM31.9961 42H33.5488V49.5996L33.3965 51H31.9961V42ZM37.627 47.7656V47.8887C37.627 48.3613 37.5742 48.7949 37.4688 49.1895C37.3672 49.584 37.2129 49.9258 37.0059 50.2148C36.7988 50.5 36.541 50.7227 36.2324 50.8828C35.9277 51.0391 35.5703 51.1172 35.1602 51.1172C34.7695 51.1172 34.4297 51.041 34.1406 50.8887C33.8555 50.7363 33.6152 50.5215 33.4199 50.2441C33.2246 49.9629 33.0684 49.6328 32.9512 49.2539C32.834 48.8711 32.7461 48.4531 32.6875 48V47.666C32.7461 47.209 32.834 46.791 32.9512 46.4121C33.0684 46.0332 33.2246 45.7031 33.4199 45.4219C33.6152 45.1406 33.8555 44.9238 34.1406 44.7715C34.4258 44.6191 34.7617 44.543 35.1484 44.543C35.5625 44.543 35.9238 44.623 36.2324 44.7832C36.5449 44.9395 36.8027 45.1621 37.0059 45.4512C37.2129 45.7363 37.3672 46.0762 37.4688 46.4707C37.5742 46.8613 37.627 47.293 37.627 47.7656ZM36.0742 47.8887V47.7656C36.0742 47.4961 36.0527 47.2422 36.0098 47.0039C35.9668 46.7617 35.8965 46.5488 35.7988 46.3652C35.7012 46.1816 35.5684 46.0371 35.4004 45.9316C35.2324 45.8262 35.0215 45.7734 34.7676 45.7734C34.5254 45.7734 34.3184 45.8145 34.1465 45.8965C33.9785 45.9785 33.8379 46.0918 33.7246 46.2363C33.6152 46.3809 33.5293 46.5508 33.4668 46.7461C33.4082 46.9414 33.3691 47.1523 33.3496 47.3789V48.293C33.377 48.5938 33.4414 48.8652 33.543 49.1074C33.6445 49.3457 33.7949 49.5352 33.9941 49.6758C34.1973 49.8164 34.459 49.8867 34.7793 49.8867C35.0293 49.8867 35.2383 49.8379 35.4062 49.7402C35.5742 49.6387 35.707 49.498 35.8047 49.3184C35.9023 49.1348 35.9707 48.9219 36.0098 48.6797C36.0527 48.4375 36.0742 48.1738 36.0742 47.8887ZM44.4062 51H42.5664L42.5781 49.7344H44.4062C44.9023 49.7344 45.3184 49.625 45.6543 49.4062C45.9902 49.1836 46.2441 48.8652 46.416 48.4512C46.5879 48.0332 46.6738 47.5332 46.6738 46.9512V46.5117C46.6738 46.0625 46.625 45.666 46.5273 45.3223C46.4297 44.9785 46.2852 44.6895 46.0938 44.4551C45.9062 44.2207 45.6738 44.043 45.3965 43.9219C45.1191 43.8008 44.8008 43.7402 44.4414 43.7402H42.5312V42.4688H44.4414C45.0117 42.4688 45.5312 42.5645 46 42.7559C46.4727 42.9473 46.8809 43.2227 47.2246 43.582C47.5723 43.9375 47.8379 44.3633 48.0215 44.8594C48.209 45.3555 48.3027 45.9102 48.3027 46.5234V46.9512C48.3027 47.5605 48.209 48.1152 48.0215 48.6152C47.8379 49.1113 47.5723 49.5371 47.2246 49.8926C46.8809 50.248 46.4707 50.5215 45.9941 50.7129C45.5176 50.9043 44.9883 51 44.4062 51ZM43.4688 42.4688V51H41.8574V42.4688H43.4688ZM52.4043 51.1172C51.9238 51.1172 51.4922 51.0391 51.1094 50.8828C50.7266 50.7266 50.4004 50.5098 50.1309 50.2324C49.8652 49.9512 49.6602 49.625 49.5156 49.2539C49.375 48.8789 49.3047 48.4766 49.3047 48.0469V47.8125C49.3047 47.3242 49.375 46.8809 49.5156 46.4824C49.6562 46.0801 49.8555 45.7344 50.1133 45.4453C50.3711 45.1562 50.6797 44.9336 51.0391 44.7773C51.3984 44.6211 51.7949 44.543 52.2285 44.543C52.6777 44.543 53.0742 44.6191 53.418 44.7715C53.7617 44.9199 54.0488 45.1309 54.2793 45.4043C54.5098 45.6777 54.6836 46.0059 54.8008 46.3887C54.918 46.7676 54.9766 47.1875 54.9766 47.6484V48.2988H50.0078V47.2324H53.4531V47.1152C53.4453 46.8691 53.3984 46.6445 53.3125 46.4414C53.2266 46.2344 53.0938 46.0703 52.9141 45.9492C52.7344 45.8242 52.502 45.7617 52.2168 45.7617C51.9863 45.7617 51.7852 45.8125 51.6133 45.9141C51.4453 46.0117 51.3047 46.1523 51.1914 46.3359C51.082 46.5156 51 46.7305 50.9453 46.9805C50.8906 47.2305 50.8633 47.5078 50.8633 47.8125V48.0469C50.8633 48.3125 50.8984 48.5586 50.9688 48.7852C51.043 49.0117 51.1504 49.209 51.291 49.377C51.4355 49.541 51.6074 49.6699 51.8066 49.7637C52.0098 49.8535 52.2402 49.8984 52.498 49.8984C52.8223 49.8984 53.1152 49.8359 53.377 49.7109C53.6426 49.582 53.873 49.3926 54.0684 49.1426L54.8477 49.9512C54.7148 50.1465 54.5352 50.334 54.3086 50.5137C54.0859 50.6934 53.8164 50.8398 53.5 50.9531C53.1836 51.0625 52.8184 51.1172 52.4043 51.1172ZM58.0352 49.8281L59.5117 44.6602H61.1289L58.9551 51H57.9707L58.0352 49.8281ZM56.957 44.6602L58.4512 49.8398L58.5039 51H57.5137L55.334 44.6602H56.957ZM64.709 51.1172C64.2285 51.1172 63.7969 51.0391 63.4141 50.8828C63.0312 50.7266 62.7051 50.5098 62.4355 50.2324C62.1699 49.9512 61.9648 49.625 61.8203 49.2539C61.6797 48.8789 61.6094 48.4766 61.6094 48.0469V47.8125C61.6094 47.3242 61.6797 46.8809 61.8203 46.4824C61.9609 46.0801 62.1602 45.7344 62.418 45.4453C62.6758 45.1562 62.9844 44.9336 63.3438 44.7773C63.7031 44.6211 64.0996 44.543 64.5332 44.543C64.9824 44.543 65.3789 44.6191 65.7227 44.7715C66.0664 44.9199 66.3535 45.1309 66.584 45.4043C66.8145 45.6777 66.9883 46.0059 67.1055 46.3887C67.2227 46.7676 67.2812 47.1875 67.2812 47.6484V48.2988H62.3125V47.2324H65.7578V47.1152C65.75 46.8691 65.7031 46.6445 65.6172 46.4414C65.5312 46.2344 65.3984 46.0703 65.2188 45.9492C65.0391 45.8242 64.8066 45.7617 64.5215 45.7617C64.291 45.7617 64.0898 45.8125 63.918 45.9141C63.75 46.0117 63.6094 46.1523 63.4961 46.3359C63.3867 46.5156 63.3047 46.7305 63.25 46.9805C63.1953 47.2305 63.168 47.5078 63.168 47.8125V48.0469C63.168 48.3125 63.2031 48.5586 63.2734 48.7852C63.3477 49.0117 63.4551 49.209 63.5957 49.377C63.7402 49.541 63.9121 49.6699 64.1113 49.7637C64.3145 49.8535 64.5449 49.8984 64.8027 49.8984C65.127 49.8984 65.4199 49.8359 65.6816 49.7109C65.9473 49.582 66.1777 49.3926 66.373 49.1426L67.1523 49.9512C67.0195 50.1465 66.8398 50.334 66.6133 50.5137C66.3906 50.6934 66.1211 50.8398 65.8047 50.9531C65.4883 51.0625 65.123 51.1172 64.709 51.1172ZM69.959 42V51H68.4062V42H69.959ZM71.1602 47.8945V47.7715C71.1602 47.3066 71.2266 46.8789 71.3594 46.4883C71.4922 46.0938 71.6855 45.752 71.9395 45.4629C72.1934 45.1738 72.5039 44.9492 72.8711 44.7891C73.2383 44.625 73.6562 44.543 74.125 44.543C74.6016 44.543 75.0234 44.625 75.3906 44.7891C75.7617 44.9492 76.0742 45.1738 76.3281 45.4629C76.582 45.752 76.7754 46.0938 76.9082 46.4883C77.041 46.8789 77.1074 47.3066 77.1074 47.7715V47.8945C77.1074 48.3555 77.041 48.7832 76.9082 49.1777C76.7754 49.5684 76.582 49.9102 76.3281 50.2031C76.0742 50.4922 75.7637 50.7168 75.3965 50.877C75.0293 51.0371 74.6094 51.1172 74.1367 51.1172C73.668 51.1172 73.248 51.0371 72.877 50.877C72.5059 50.7168 72.1934 50.4922 71.9395 50.2031C71.6855 49.9102 71.4922 49.5684 71.3594 49.1777C71.2266 48.7832 71.1602 48.3555 71.1602 47.8945ZM72.707 47.7715V47.8945C72.707 48.1719 72.7344 48.4316 72.7891 48.6738C72.8438 48.916 72.9277 49.1289 73.041 49.3125C73.1543 49.4961 73.3008 49.6406 73.4805 49.7461C73.6641 49.8477 73.8828 49.8984 74.1367 49.8984C74.3867 49.8984 74.6016 49.8477 74.7812 49.7461C74.9609 49.6406 75.1074 49.4961 75.2207 49.3125C75.3379 49.1289 75.4238 48.916 75.4785 48.6738C75.5332 48.4316 75.5605 48.1719 75.5605 47.8945V47.7715C75.5605 47.498 75.5332 47.2422 75.4785 47.0039C75.4238 46.7617 75.3379 46.5488 75.2207 46.3652C75.1074 46.1777 74.959 46.0312 74.7754 45.9258C74.5957 45.8164 74.3789 45.7617 74.125 45.7617C73.875 45.7617 73.6602 45.8164 73.4805 45.9258C73.3008 46.0312 73.1543 46.1777 73.041 46.3652C72.9277 46.5488 72.8438 46.7617 72.7891 47.0039C72.7344 47.2422 72.707 47.498 72.707 47.7715ZM79.7793 45.8789V53.4375H78.2266V44.6602H79.6621L79.7793 45.8789ZM83.8516 47.7656V47.8887C83.8516 48.3496 83.7969 48.7773 83.6875 49.1719C83.582 49.5625 83.4258 49.9043 83.2188 50.1973C83.0117 50.4863 82.7539 50.7129 82.4453 50.877C82.1406 51.0371 81.7891 51.1172 81.3906 51.1172C81 51.1172 80.6602 51.043 80.3711 50.8945C80.082 50.7422 79.8379 50.5273 79.6387 50.25C79.4395 49.9727 79.2793 49.6504 79.1582 49.2832C79.041 48.9121 78.9531 48.5078 78.8945 48.0703V47.6777C78.9531 47.2129 79.041 46.791 79.1582 46.4121C79.2793 46.0293 79.4395 45.6992 79.6387 45.4219C79.8379 45.1406 80.0801 44.9238 80.3652 44.7715C80.6543 44.6191 80.9922 44.543 81.3789 44.543C81.7812 44.543 82.1348 44.6191 82.4395 44.7715C82.748 44.9238 83.0078 45.1426 83.2188 45.4277C83.4297 45.7129 83.5879 46.0527 83.6934 46.4473C83.7988 46.8418 83.8516 47.2812 83.8516 47.7656ZM82.2988 47.8887V47.7656C82.2988 47.4844 82.2734 47.2246 82.2227 46.9863C82.1719 46.7441 82.0938 46.5332 81.9883 46.3535C81.8828 46.1699 81.7461 46.0273 81.5781 45.9258C81.4102 45.8242 81.207 45.7734 80.9688 45.7734C80.7305 45.7734 80.5254 45.8125 80.3535 45.8906C80.1816 45.9688 80.041 46.0801 79.9316 46.2246C79.8223 46.3691 79.7363 46.541 79.6738 46.7402C79.6152 46.9355 79.5762 47.1523 79.5566 47.3906V48.3633C79.5918 48.6523 79.6602 48.9121 79.7617 49.1426C79.8633 49.373 80.0117 49.5566 80.207 49.6934C80.4062 49.8301 80.6641 49.8984 80.9805 49.8984C81.2188 49.8984 81.4219 49.8457 81.5898 49.7402C81.7578 49.6348 81.8945 49.4902 82 49.3066C82.1055 49.1191 82.1816 48.9043 82.2285 48.6621C82.2754 48.4199 82.2988 48.1621 82.2988 47.8887ZM87.8301 51.1172C87.3496 51.1172 86.918 51.0391 86.5352 50.8828C86.1523 50.7266 85.8262 50.5098 85.5566 50.2324C85.291 49.9512 85.0859 49.625 84.9414 49.2539C84.8008 48.8789 84.7305 48.4766 84.7305 48.0469V47.8125C84.7305 47.3242 84.8008 46.8809 84.9414 46.4824C85.082 46.0801 85.2812 45.7344 85.5391 45.4453C85.7969 45.1562 86.1055 44.9336 86.4648 44.7773C86.8242 44.6211 87.2207 44.543 87.6543 44.543C88.1035 44.543 88.5 44.6191 88.8438 44.7715C89.1875 44.9199 89.4746 45.1309 89.7051 45.4043C89.9355 45.6777 90.1094 46.0059 90.2266 46.3887C90.3438 46.7676 90.4023 47.1875 90.4023 47.6484V48.2988H85.4336V47.2324H88.8789V47.1152C88.8711 46.8691 88.8242 46.6445 88.7383 46.4414C88.6523 46.2344 88.5195 46.0703 88.3398 45.9492C88.1602 45.8242 87.9277 45.7617 87.6426 45.7617C87.4121 45.7617 87.2109 45.8125 87.0391 45.9141C86.8711 46.0117 86.7305 46.1523 86.6172 46.3359C86.5078 46.5156 86.4258 46.7305 86.3711 46.9805C86.3164 47.2305 86.2891 47.5078 86.2891 47.8125V48.0469C86.2891 48.3125 86.3242 48.5586 86.3945 48.7852C86.4688 49.0117 86.5762 49.209 86.7168 49.377C86.8613 49.541 87.0332 49.6699 87.2324 49.7637C87.4355 49.8535 87.666 49.8984 87.9238 49.8984C88.248 49.8984 88.541 49.8359 88.8027 49.7109C89.0684 49.582 89.2988 49.3926 89.4941 49.1426L90.2734 49.9512C90.1406 50.1465 89.9609 50.334 89.7344 50.5137C89.5117 50.6934 89.2422 50.8398 88.9258 50.9531C88.6094 51.0625 88.2441 51.1172 87.8301 51.1172ZM92.9863 45.9551V51H91.4395V44.6602H92.9043L92.9863 45.9551ZM94.9141 44.6191L94.8906 46.0605C94.8047 46.0449 94.707 46.0332 94.5977 46.0254C94.4922 46.0176 94.3926 46.0137 94.2988 46.0137C94.0605 46.0137 93.8516 46.0469 93.6719 46.1133C93.4922 46.1758 93.3418 46.2676 93.2207 46.3887C93.1035 46.5098 93.0137 46.6582 92.9512 46.834C92.8887 47.0059 92.8535 47.2012 92.8457 47.4199L92.5117 47.3789C92.5117 46.9766 92.5527 46.6035 92.6348 46.2598C92.7168 45.916 92.8359 45.6152 92.9922 45.3574C93.1484 45.0996 93.3438 44.9004 93.5781 44.7598C93.8164 44.6152 94.0898 44.543 94.3984 44.543C94.4844 44.543 94.5762 44.5508 94.6738 44.5664C94.7754 44.5781 94.8555 44.5957 94.9141 44.6191Z" fill="white"/>
</g>
<path d="M1 5C1 2.79086 2.79086 1 5 1H109V56C109 58.2091 107.209 60 105 60H1V5Z" stroke="white" stroke-width="2"/>
<defs>
<clipPath id="clip0_5_117">
<rect width="81" height="14" fill="white" transform="translate(14.5 40)"/>
</clipPath>
</defs>
</svg>
