<svg id="Layer_1" data-name="Layer 1" xmlns="http://www.w3.org/2000/svg" viewBox="0 0 114.54 122.88"><defs><style>.cls-1{fill-rule:evenodd;}</style></defs><title>mobile-and-tablet</title><path class="cls-1" d="M85.1,4V18.72H79.7V7.1H6v98.46H50.08v9.5a18.13,18.13,0,0,0,1.41,7c.11.27.22.53.35.8H4a4,4,0,0,1-4-4V4A4,4,0,0,1,4,0H81.11a4,4,0,0,1,4,4ZM70.56,31.05H105a9.53,9.53,0,0,1,9.51,9.51v72.81a9.53,9.53,0,0,1-9.51,9.51H70.56a9.53,9.53,0,0,1-9.51-9.51V40.55a9.51,9.51,0,0,1,9.51-9.5Zm-6.23,78.62h46.92V41.42H64.33v68.25Zm23.45,3a3.91,3.91,0,1,1-3.91,3.91,3.9,3.9,0,0,1,3.91-3.91ZM40.64,109.6a4.57,4.57,0,1,1-4.56,4.56,4.56,4.56,0,0,1,4.56-4.56Z"/></svg>